<svg xmlns="http://www.w3.org/2000/svg" width="1600" height="1000" viewBox="0 0 1600 1000">
<rect width="100%" height="100%" fill="#f8f9fb"/>
<text x="800.0" y="62" text-anchor="middle" font-family="Inter, system-ui, Arial" font-size="44" fill="#181f26" font-weight="800">Factory Paper Size — Scaled Modules</text>
<text x="800.0" y="94" text-anchor="middle" font-family="Inter, system-ui, Arial" font-size="18" fill="#181f26" opacity="0.72">Monochrome • Offset labels • Staggered nesting (A0 → A1 → A5 → A8)</text>
<rect x="110.00" y="140.00" width="1102.76" height="780.00" rx="12" ry="12" fill="#eceef1" stroke="#181f26" stroke-opacity="0.10" stroke-width="2"/>
<line x1="1212.8" y1="152.0" x2="1244.8" y2="160.0" stroke="#4063a4" stroke-width="2"/>
<rect x="1244.8" y="142.0" width="260" height="40" rx="10" ry="10" fill="white" stroke="#181f26" stroke-opacity="0.08"/>
<text x="1260.8" y="166.0" font-family="Inter, system-ui, Arial" font-size="20" font-weight="700" fill="#181f26">MACRO — A0</text>
<rect x="150.00" y="170.00" width="779.77" height="551.54" rx="12" ry="12" fill="#dee2e7" stroke="#181f26" stroke-opacity="0.10" stroke-width="2"/>
<line x1="929.8" y1="182.0" x2="961.8" y2="190.0" stroke="#4063a4" stroke-width="2"/>
<rect x="961.8" y="172.0" width="260" height="40" rx="10" ry="10" fill="white" stroke="#181f26" stroke-opacity="0.08"/>
<text x="977.8" y="196.0" font-family="Inter, system-ui, Arial" font-size="20" font-weight="700" fill="#181f26">HUMAN — A1</text>
<rect x="190.00" y="210.00" width="194.94" height="137.89" rx="12" ry="12" fill="#d0d5dc" stroke="#181f26" stroke-opacity="0.10" stroke-width="2"/>
<line x1="384.9" y1="222.0" x2="416.9" y2="230.0" stroke="#4063a4" stroke-width="2"/>
<rect x="416.9" y="212.0" width="260" height="40" rx="10" ry="10" fill="white" stroke="#181f26" stroke-opacity="0.08"/>
<text x="432.9" y="236.0" font-family="Inter, system-ui, Arial" font-size="20" font-weight="700" fill="#181f26">MICRO — A5</text>
<rect x="230.00" y="250.00" width="68.92" height="48.75" rx="12" ry="12" fill="#bec5cd" stroke="#181f26" stroke-opacity="0.10" stroke-width="2"/>
<line x1="298.9" y1="262.0" x2="330.9" y2="270.0" stroke="#4063a4" stroke-width="2"/>
<rect x="330.9" y="252.0" width="260" height="40" rx="10" ry="10" fill="white" stroke="#181f26" stroke-opacity="0.08"/>
<text x="346.9" y="276.0" font-family="Inter, system-ui, Arial" font-size="20" font-weight="700" fill="#181f26">NANO — A8</text>
</svg>